<svg width="3014" height="7228" viewBox="0 0 3014 7228" fill="none" xmlns="http://www.w3.org/2000/svg">
<g filter="url(#filter0_f_196_460)">
<path d="M509.761 534.729C519.933 524.185 536.998 523.091 548.937 531.583C1010.69 860.024 1068.05 606.861 1171.99 745.293C1277.49 885.797 1125.71 1306.05 987.783 1409.61C850.382 1512.78 794.22 1510.34 646.448 1247.38C645.351 1245.43 644.431 1243.25 643.783 1241.11C552.134 937.805 225.759 829.115 509.761 534.729Z" fill="url(#paint0_linear_196_460)" fill-opacity="0.2"/>
</g>
<g filter="url(#filter1_f_196_460)">
<path d="M1274.41 272.321C1285.19 282.105 1286.52 298.678 1278.46 310.809C1067.4 628.491 1240.72 666.27 1147.74 739.144C1052.74 813.602 758.977 711.551 684.52 616.549C610.48 522.081 610.871 483.003 788.718 378.6C790.681 377.448 792.875 376.481 795.041 375.784C1000.32 309.758 1069.49 86.4752 1274.41 272.321Z" fill="url(#paint1_linear_196_460)" fill-opacity="0.2"/>
</g>
<g opacity="0.5" filter="url(#filter2_f_196_460)">
<path d="M1972.45 1142.68C1960.12 1134.93 1955.55 1118.62 1961.28 1105.23C2169.1 619.588 1924.77 613.558 2031.11 492.082C2139.13 368.675 2557.11 430.707 2680.52 538.731C2803.42 646.31 2812.61 698.576 2600.57 883.561C2598.86 885.057 2596.88 886.42 2594.88 887.502C2334.51 1028.29 2300.39 1348.86 1972.45 1142.68Z" fill="url(#paint2_linear_196_460)" fill-opacity="0.2"/>
</g>
<g filter="url(#filter3_f_196_460)">
<path d="M2692.45 1753.33C2689.31 1767.69 2675.33 1777.38 2660.68 1776.31C2176.7 1740.9 2247.75 1951.07 2109.23 1895.57C1968.3 1839.11 1890.89 1463.25 1945.83 1326.11C2000.53 1189.57 2042.97 1166.43 2269.81 1293.86C2271.75 1294.95 2273.65 1296.32 2275.31 1297.79C2478.6 1478.95 2766.2 1415.56 2692.45 1753.33Z" fill="url(#paint3_linear_196_460)" fill-opacity="0.2"/>
</g>
<g filter="url(#filter4_f_196_460)">
<path d="M1625.91 2182.54C1635.1 2193.76 1634.51 2210.86 1624.97 2221.79C1148.73 2767.46 1465.09 2879.77 1277.16 2992.12C1087.04 3105.77 572.915 2847.55 457.955 2655.25C343.35 2463.54 353.08 2392.06 703.835 2242.71C705.95 2241.8 708.283 2241.11 710.546 2240.71C1107.57 2169.6 1283 1763.97 1625.91 2182.54Z" fill="url(#paint4_linear_196_460)" fill-opacity="0.2"/>
</g>
<g filter="url(#filter5_f_196_460)">
<path d="M2401.95 4062.09C2390.96 4071.56 2373.85 4071.4 2362.68 4062.13C1805.18 3599.8 1700.89 3918.89 1583.84 3733.85C1465.43 3546.65 1710.62 3026.18 1899.96 2906.42C2088.71 2787.02 2160.42 2794.94 2318.56 3141.82C2319.52 3143.91 2320.27 3146.23 2320.73 3148.48C2401.82 3543.59 2811.74 3708.74 2401.95 4062.09Z" fill="url(#paint5_linear_196_460)" fill-opacity="0.2"/>
</g>
<g filter="url(#filter6_f_196_460)">
<path d="M1659.62 5353.39C1657.43 5367.74 1644.32 5378.73 1629.81 5378.95C905.636 5390.03 1033.8 5700.3 824.572 5635.77C612.905 5570.5 460.898 5015.61 526.923 4801.52C592.744 4588.09 652.384 4547.5 998.045 4708.29C1000.13 4709.26 1002.2 4710.53 1004.02 4711.94C1322.48 4959.47 1741.33 4818.5 1659.62 5353.39Z" fill="url(#paint6_linear_196_460)" fill-opacity="0.2"/>
</g>
<g opacity="0.7" filter="url(#filter7_f_196_460)">
<path d="M2435.02 6531.18C2423.17 6539.55 2406.27 6537.67 2396.06 6527.36C1956.98 6083.75 1839.74 6348.75 1754.89 6179.33C1668.9 6007.62 1925.33 5579.81 2099 5492.83C2272.06 5406.16 2333.26 5419.14 2439.65 5731.59C2440.39 5733.76 2440.9 5736.14 2441.14 5738.43C2477.16 6085.13 2814.53 6262.92 2435.02 6531.18Z" fill="url(#paint7_linear_196_460)" fill-opacity="0.2"/>
</g>
<g opacity="0.7" filter="url(#filter8_f_196_460)">
<path d="M1228.05 6814.64C1219.77 6826.56 1203.24 6830.56 1190.12 6824.35C625.986 6557.28 606.251 6846.39 468.662 6716.1C329.22 6584.07 424.204 6094.41 557.752 5953.37C690.825 5812.84 752.773 5804.14 959.435 6061.5C960.874 6063.3 962.168 6065.35 963.172 6067.42C1115.38 6381 1493.18 6432.94 1228.05 6814.64Z" fill="url(#paint8_linear_196_460)" fill-opacity="0.2"/>
</g>
<defs>
<filter id="filter0_f_196_460" x="196.064" y="325.929" width="1211.2" height="1347.04" filterUnits="userSpaceOnUse" color-interpolation-filters="sRGB">
<feFlood flood-opacity="0" result="BackgroundImageFix"/>
<feBlend mode="normal" in="SourceGraphic" in2="BackgroundImageFix" result="shape"/>
<feGaussianBlur stdDeviation="100" result="effect1_foregroundBlur_196_460"/>
</filter>
<filter id="filter1_f_196_460" x="437.967" y="0" width="1045.68" height="964.791" filterUnits="userSpaceOnUse" color-interpolation-filters="sRGB">
<feFlood flood-opacity="0" result="BackgroundImageFix"/>
<feBlend mode="normal" in="SourceGraphic" in2="BackgroundImageFix" result="shape"/>
<feGaussianBlur stdDeviation="100" result="effect1_foregroundBlur_196_460"/>
</filter>
<filter id="filter2_f_196_460" x="1758.83" y="224.04" width="1208.73" height="1185.91" filterUnits="userSpaceOnUse" color-interpolation-filters="sRGB">
<feFlood flood-opacity="0" result="BackgroundImageFix"/>
<feBlend mode="normal" in="SourceGraphic" in2="BackgroundImageFix" result="shape"/>
<feGaussianBlur stdDeviation="100" result="effect1_foregroundBlur_196_460"/>
</filter>
<filter id="filter3_f_196_460" x="1728.05" y="1009.91" width="1176.21" height="1095.05" filterUnits="userSpaceOnUse" color-interpolation-filters="sRGB">
<feFlood flood-opacity="0" result="BackgroundImageFix"/>
<feBlend mode="normal" in="SourceGraphic" in2="BackgroundImageFix" result="shape"/>
<feGaussianBlur stdDeviation="100" result="effect1_foregroundBlur_196_460"/>
</filter>
<filter id="filter4_f_196_460" x="192.6" y="1795.78" width="1639.88" height="1424.21" filterUnits="userSpaceOnUse" color-interpolation-filters="sRGB">
<feFlood flood-opacity="0" result="BackgroundImageFix"/>
<feBlend mode="normal" in="SourceGraphic" in2="BackgroundImageFix" result="shape"/>
<feGaussianBlur stdDeviation="100" result="effect1_foregroundBlur_196_460"/>
</filter>
<filter id="filter5_f_196_460" x="1252.79" y="2536.84" width="1628.39" height="1832.3" filterUnits="userSpaceOnUse" color-interpolation-filters="sRGB">
<feFlood flood-opacity="0" result="BackgroundImageFix"/>
<feBlend mode="normal" in="SourceGraphic" in2="BackgroundImageFix" result="shape"/>
<feGaussianBlur stdDeviation="150" result="effect1_foregroundBlur_196_460"/>
</filter>
<filter id="filter6_f_196_460" x="311.326" y="4410.11" width="1558.65" height="1434.49" filterUnits="userSpaceOnUse" color-interpolation-filters="sRGB">
<feFlood flood-opacity="0" result="BackgroundImageFix"/>
<feBlend mode="normal" in="SourceGraphic" in2="BackgroundImageFix" result="shape"/>
<feGaussianBlur stdDeviation="100" result="effect1_foregroundBlur_196_460"/>
</filter>
<filter id="filter7_f_196_460" x="1337.74" y="5046.76" width="1675.98" height="1889.68" filterUnits="userSpaceOnUse" color-interpolation-filters="sRGB">
<feFlood flood-opacity="0" result="BackgroundImageFix"/>
<feBlend mode="normal" in="SourceGraphic" in2="BackgroundImageFix" result="shape"/>
<feGaussianBlur stdDeviation="200" result="effect1_foregroundBlur_196_460"/>
</filter>
<filter id="filter8_f_196_460" x="0" y="5455.86" width="1719.92" height="1771.38" filterUnits="userSpaceOnUse" color-interpolation-filters="sRGB">
<feFlood flood-opacity="0" result="BackgroundImageFix"/>
<feBlend mode="normal" in="SourceGraphic" in2="BackgroundImageFix" result="shape"/>
<feGaussianBlur stdDeviation="200" result="effect1_foregroundBlur_196_460"/>
</filter>
<linearGradient id="paint0_linear_196_460" x1="218.111" y1="1078.18" x2="1287.58" y2="937.991" gradientUnits="userSpaceOnUse">
<stop stop-color="#0071FF"/>
<stop offset="1" stop-color="#24E6C2"/>
</linearGradient>
<linearGradient id="paint1_linear_196_460" x1="897.905" y1="78.9884" x2="1005.05" y2="822.737" gradientUnits="userSpaceOnUse">
<stop stop-color="#54DCFB"/>
<stop offset="1" stop-color="#86F7A5"/>
</linearGradient>
<linearGradient id="paint2_linear_196_460" x1="2531.44" y1="1310.33" x2="2200.49" y2="344.432" gradientUnits="userSpaceOnUse">
<stop stop-color="#F65F80"/>
<stop offset="1" stop-color="#CB53FA"/>
</linearGradient>
<linearGradient id="paint3_linear_196_460" x1="2661.78" y1="1228.63" x2="1941.73" y2="1810.63" gradientUnits="userSpaceOnUse">
<stop stop-color="#E55858"/>
<stop offset="1" stop-color="#FAC253"/>
</linearGradient>
<linearGradient id="paint4_linear_196_460" x1="967.211" y1="1720.5" x2="984.188" y2="3111.18" gradientUnits="userSpaceOnUse">
<stop stop-color="#00E6FF"/>
<stop offset="1" stop-color="#AEFF19"/>
</linearGradient>
<linearGradient id="paint5_linear_196_460" x1="2847.24" y1="3391.95" x2="1457.43" y2="3443.97" gradientUnits="userSpaceOnUse">
<stop stop-color="#6A00FF"/>
<stop offset="1" stop-color="#FFBB00"/>
</linearGradient>
<linearGradient id="paint6_linear_196_460" x1="1562.39" y1="4554.7" x2="540.082" y2="5497.67" gradientUnits="userSpaceOnUse">
<stop stop-color="#00FFCC"/>
<stop offset="0.576923" stop-color="#C892DF"/>
</linearGradient>
<linearGradient id="paint7_linear_196_460" x1="2947.34" y1="6492.65" x2="1613.36" y2="5575.52" gradientUnits="userSpaceOnUse">
<stop offset="0.384615" stop-color="#FA005C"/>
<stop offset="0.743743" stop-color="#FF9D00"/>
</linearGradient>
<linearGradient id="paint8_linear_196_460" x1="1696.43" y1="6603.53" x2="129.511" y2="6196.88" gradientUnits="userSpaceOnUse">
<stop offset="0.384615" stop-color="#2AFA00"/>
<stop offset="0.743743" stop-color="#2F00FF"/>
</linearGradient>
</defs>
</svg>
