<svg width="76" height="60" viewBox="0 0 76 60" fill="none" xmlns="http://www.w3.org/2000/svg">
<path d="M4.21875 30.9375C3.47283 30.9375 2.75746 30.6412 2.23001 30.1137C1.70257 29.5863 1.40625 28.8709 1.40625 28.125C1.40625 27.3791 1.70257 26.6637 2.23001 26.1363C2.75746 25.6088 3.47283 25.3125 4.21875 25.3125H14.0625C14.8084 25.3125 15.5238 25.0162 16.0512 24.4887C16.5787 23.9613 16.875 23.2459 16.875 22.5C16.875 21.7541 16.5787 21.0387 16.0512 20.5113C15.5238 19.9838 14.8084 19.6875 14.0625 19.6875H8.4375C6.19974 19.6875 4.05362 18.7986 2.47129 17.2162C0.888949 15.6339 0 13.4878 0 11.25C0 9.01224 0.888949 6.86612 2.47129 5.28379C4.05362 3.70145 6.19974 2.8125 8.4375 2.8125C8.4375 2.06658 8.73382 1.35121 9.26126 0.823763C9.78871 0.296317 10.5041 0 11.25 0C11.9959 0 12.7113 0.296317 13.2387 0.823763C13.7662 1.35121 14.0625 2.06658 14.0625 2.8125H16.875C17.6209 2.8125 18.3363 3.10882 18.8637 3.63626C19.3912 4.16371 19.6875 4.87908 19.6875 5.625C19.6875 6.37092 19.3912 7.08629 18.8637 7.61374C18.3363 8.14118 17.6209 8.4375 16.875 8.4375H8.4375C7.69158 8.4375 6.97621 8.73382 6.44876 9.26126C5.92132 9.78871 5.625 10.5041 5.625 11.25C5.625 11.9959 5.92132 12.7113 6.44876 13.2387C6.97621 13.7662 7.69158 14.0625 8.4375 14.0625H14.0625C16.3003 14.0625 18.4464 14.9514 20.0287 16.5338C21.6111 18.1161 22.5 20.2622 22.5 22.5C22.5 24.7378 21.6111 26.8839 20.0287 28.4662C18.4464 30.0486 16.3003 30.9375 14.0625 30.9375C14.0625 31.6834 13.7662 32.3988 13.2387 32.9262C12.7113 33.4537 11.9959 33.75 11.25 33.75C10.5041 33.75 9.78871 33.4537 9.26126 32.9262C8.73382 32.3988 8.4375 31.6834 8.4375 30.9375H4.21875ZM75.9375 5.625V53.4375C75.9375 54.9293 75.3449 56.3601 74.29 57.415C73.2351 58.4699 71.8043 59.0625 70.3125 59.0625H8.4375C6.94566 59.0625 5.51492 58.4699 4.46002 57.415C3.40513 56.3601 2.8125 54.9293 2.8125 53.4375V39.375C2.8125 38.6291 3.10882 37.9137 3.63626 37.3863C4.16371 36.8588 4.87908 36.5625 5.625 36.5625C6.37092 36.5625 7.08629 36.8588 7.61374 37.3863C8.14118 37.9137 8.4375 38.6291 8.4375 39.375V53.4375H50.625V42.1875H22.5C21.7541 42.1875 21.0387 41.8912 20.5113 41.3637C19.9838 40.8363 19.6875 40.1209 19.6875 39.375C19.6875 38.6291 19.9838 37.9137 20.5113 37.3863C21.0387 36.8588 21.7541 36.5625 22.5 36.5625H50.625V25.3125H30.9375C30.1916 25.3125 29.4762 25.0162 28.9488 24.4887C28.4213 23.9613 28.125 23.2459 28.125 22.5C28.125 21.7541 28.4213 21.0387 28.9488 20.5113C29.4762 19.9838 30.1916 19.6875 30.9375 19.6875H70.3125V8.4375H28.125C27.3791 8.4375 26.6637 8.14118 26.1363 7.61374C25.6088 7.08629 25.3125 6.37092 25.3125 5.625C25.3125 4.87908 25.6088 4.16371 26.1363 3.63626C26.6637 3.10882 27.3791 2.8125 28.125 2.8125H73.125C73.8709 2.8125 74.5863 3.10882 75.1137 3.63626C75.6412 4.16371 75.9375 4.87908 75.9375 5.625ZM56.25 36.5625H70.3125V25.3125H56.25V36.5625ZM70.3125 53.4375V42.1875H56.25V53.4375H70.3125Z" fill="#434343"/>
</svg>
