<svg width="153" height="54" viewBox="0 0 153 54" fill="none" xmlns="http://www.w3.org/2000/svg">
<path d="M136.201 13.8936C144.993 13.8936 152.121 21.0208 152.121 29.8125L152.115 30.2236C151.897 38.8256 144.856 45.7324 136.201 45.7324L135.791 45.7266C134.186 45.6859 132.64 45.4068 131.187 44.9248L128.021 48.627L119.358 41.2148L117.814 43.0205L126.477 50.4316L125.608 51.4473C123.902 53.4412 120.902 53.6744 118.908 51.9688L117.463 50.7324C115.469 49.0262 115.236 46.0263 116.942 44.0322L122.366 37.6914C121.04 35.3682 120.282 32.6789 120.282 29.8125C120.282 21.0208 127.41 13.8937 136.201 13.8936ZM128.025 48.6299L126.48 50.4355L126.477 50.4316L128.021 48.627L128.025 48.6299ZM21.2949 3.26758C23.0569 3.26764 24.7097 3.60428 26.2539 4.27734C27.7983 4.95054 29.1455 5.87086 30.2939 7.03906C31.462 8.18739 32.3825 9.53386 33.0557 11.0781C33.7288 12.6225 34.0654 14.2759 34.0654 16.0381C34.0654 16.8301 33.9561 17.642 33.7383 18.4736C33.5205 19.305 33.2142 20.1069 32.8184 20.8789C32.4224 21.6511 31.947 22.3547 31.3926 22.9883C30.8382 23.6218 30.2239 24.1467 29.5508 24.5625C30.2437 24.9387 30.8675 25.4531 31.4219 26.1064C31.9762 26.74 32.4517 27.4428 32.8477 28.2148C33.2436 28.9869 33.5403 29.7991 33.7383 30.6504C33.9561 31.482 34.0654 32.294 34.0654 33.0859C34.0654 34.8481 33.7289 36.5015 33.0557 38.0459C32.3825 39.5903 31.4621 40.947 30.2939 42.1152C29.1455 43.2636 27.7983 44.1745 26.2539 44.8477C24.7098 45.5206 23.0567 45.8574 21.2949 45.8574H0V3.26758H21.2949ZM47.8164 45.8574H39.6494V14.0479H47.8164V45.8574ZM62.1914 45.8574H54.0234V1.39648H62.1914V45.8574ZM76.5664 45.8574H68.3984V1.39648H76.5664V45.8574ZM91.6533 28.8389C91.6533 30.0071 91.872 31.1061 92.3076 32.1357C92.763 33.1651 93.3764 34.0658 94.1484 34.8379C94.9206 35.6101 95.822 36.2243 96.8516 36.6797C97.9009 37.1152 99.0096 37.333 100.178 37.333C101.346 37.333 102.445 37.1153 103.475 36.6797C104.524 36.2243 105.435 35.61 106.207 34.8379C106.979 34.0658 107.583 33.1652 108.019 32.1357C108.474 31.1061 108.701 30.0071 108.701 28.8389V3.26758H117.226V28.8389C117.226 31.1951 116.78 33.4132 115.889 35.4922C114.998 37.5512 113.781 39.3532 112.236 40.8975C110.692 42.4221 108.88 43.6295 106.801 44.5205C104.742 45.4115 102.534 45.8574 100.178 45.8574C97.8215 45.8574 95.6034 45.4115 93.5244 44.5205C91.4654 43.6295 89.6634 42.422 88.1191 40.8975C86.5946 39.3532 85.3871 37.5512 84.4961 35.4922C83.6051 33.4132 83.1592 31.1951 83.1592 28.8389V3.26758H91.6533V28.8389ZM136.201 21.0215C131.346 21.0217 127.41 24.9575 127.41 29.8125C127.41 34.6676 131.346 38.6033 136.201 38.6035C141.056 38.6034 144.992 34.6677 144.992 29.8125C144.992 24.9574 141.056 21.0216 136.201 21.0215ZM8.52344 37.333H21.2949C21.8887 37.333 22.4433 37.2246 22.958 37.0068C23.4727 36.789 23.9178 36.4914 24.2939 36.1152C24.6899 35.7192 24.997 35.2638 25.2148 34.749C25.4326 34.2343 25.542 33.6799 25.542 33.0859C25.542 32.492 25.4326 31.9376 25.2148 31.4229C24.997 30.9081 24.6899 30.4621 24.2939 30.0859C23.9179 29.6902 23.4725 29.3837 22.958 29.166C22.4433 28.9483 21.8887 28.8389 21.2949 28.8389H8.52344V37.333ZM8.52344 20.3154H21.2949C21.8887 20.3154 22.4433 20.206 22.958 19.9883C23.4726 19.7705 23.9179 19.4736 24.2939 19.0977C24.6899 18.7017 24.9971 18.2461 25.2148 17.7314C25.4326 17.1968 25.542 16.6321 25.542 16.0381C25.542 15.4441 25.4326 14.8898 25.2148 14.375C24.997 13.8602 24.6899 13.4143 24.2939 13.0381C23.9179 12.6424 23.4725 12.3359 22.958 12.1182C22.4433 11.9004 21.8887 11.7911 21.2949 11.791H8.52344V20.3154ZM43.748 0C44.5003 4.99875e-05 45.2032 0.148388 45.8564 0.445312C46.5296 0.722513 47.1134 1.10949 47.6084 1.60449C48.1032 2.07956 48.4894 2.65323 48.7666 3.32617C49.0636 3.97947 49.2128 4.6728 49.2129 5.40527C49.2129 6.15767 49.0636 6.86125 48.7666 7.51465C48.4894 8.16787 48.1033 8.74241 47.6084 9.2373C47.1135 9.71236 46.5295 10.0986 45.8564 10.3955C45.2032 10.6726 44.5003 10.8105 43.748 10.8105C42.9957 10.8105 42.2825 10.6727 41.6094 10.3955C40.9561 10.0986 40.3817 9.71241 39.8867 9.2373C39.4116 8.74239 39.0255 8.16791 38.7285 7.51465C38.4513 6.86125 38.3125 6.15767 38.3125 5.40527C38.3125 4.6728 38.4514 3.97947 38.7285 3.32617C39.0254 2.65326 39.4117 2.07955 39.8867 1.60449C40.3817 1.10949 40.956 0.722513 41.6094 0.445312C42.2825 0.148382 42.9957 0 43.748 0Z" fill="#FAC253"/>
</svg>
