<svg width="79" height="57" viewBox="0 0 79 57" fill="none" xmlns="http://www.w3.org/2000/svg">
<path d="M73.125 0H5.625C4.13316 0 2.70242 0.592632 1.64752 1.64752C0.592632 2.70242 0 4.13316 0 5.625V50.625C0 52.1168 0.592632 53.5476 1.64752 54.6025C2.70242 55.6574 4.13316 56.25 5.625 56.25H73.125C74.6168 56.25 76.0476 55.6574 77.1025 54.6025C78.1574 53.5476 78.75 52.1168 78.75 50.625V5.625C78.75 4.13316 78.1574 2.70242 77.1025 1.64752C76.0476 0.592632 74.6168 0 73.125 0ZM73.125 5.625V14.0625H5.625V5.625H73.125ZM73.125 50.625H5.625V19.6875H73.125V50.625ZM67.5 42.1875C67.5 42.9334 67.2037 43.6488 66.6762 44.1762C66.1488 44.7037 65.4334 45 64.6875 45H53.4375C52.6916 45 51.9762 44.7037 51.4488 44.1762C50.9213 43.6488 50.625 42.9334 50.625 42.1875C50.625 41.4416 50.9213 40.7262 51.4488 40.1988C51.9762 39.6713 52.6916 39.375 53.4375 39.375H64.6875C65.4334 39.375 66.1488 39.6713 66.6762 40.1988C67.2037 40.7262 67.5 41.4416 67.5 42.1875ZM45 42.1875C45 42.9334 44.7037 43.6488 44.1762 44.1762C43.6488 44.7037 42.9334 45 42.1875 45H36.5625C35.8166 45 35.1012 44.7037 34.5738 44.1762C34.0463 43.6488 33.75 42.9334 33.75 42.1875C33.75 41.4416 34.0463 40.7262 34.5738 40.1988C35.1012 39.6713 35.8166 39.375 36.5625 39.375H42.1875C42.9334 39.375 43.6488 39.6713 44.1762 40.1988C44.7037 40.7262 45 41.4416 45 42.1875Z" fill="#434343"/>
</svg>
