<svg width="85" height="71" viewBox="0 0 85 71" fill="none" xmlns="http://www.w3.org/2000/svg">
<path d="M81.5625 64.6884H75.9375V39.3759L76.7602 40.1986C77.2888 40.7263 78.0055 41.0224 78.7525 41.0218C79.4995 41.0211 80.2156 40.7237 80.7434 40.1951C81.2711 39.6664 81.5672 38.9497 81.5666 38.2027C81.5659 37.4557 81.2685 36.7396 80.7398 36.2118L46.1637 1.64622C45.1089 0.592126 43.6787 0 42.1875 0C40.6963 0 39.2661 0.592126 38.2113 1.64622L3.63516 36.2118C3.10788 36.7396 2.81185 37.4552 2.81218 38.2012C2.81251 38.9472 3.10917 39.6625 3.63691 40.1898C4.16465 40.7171 4.88024 41.0131 5.62624 41.0128C6.37225 41.0124 7.08757 40.7158 7.61484 40.188L8.4375 39.3759V64.6884H2.8125C2.06658 64.6884 1.35121 64.9847 0.823762 65.5122C0.296316 66.0396 0 66.755 0 67.5009C0 68.2468 0.296316 68.9622 0.823762 69.4896C1.35121 70.0171 2.06658 70.3134 2.8125 70.3134H81.5625C82.3084 70.3134 83.0238 70.0171 83.5512 69.4896C84.0787 68.9622 84.375 68.2468 84.375 67.5009C84.375 66.755 84.0787 66.0396 83.5512 65.5122C83.0238 64.9847 82.3084 64.6884 81.5625 64.6884ZM14.0625 33.7509L42.1875 5.62591L70.3125 33.7509V64.6884H53.4375V45.0009C53.4375 44.255 53.1412 43.5396 52.6137 43.0122C52.0863 42.4847 51.3709 42.1884 50.625 42.1884H33.75C33.0041 42.1884 32.2887 42.4847 31.7613 43.0122C31.2338 43.5396 30.9375 44.255 30.9375 45.0009V64.6884H14.0625V33.7509ZM47.8125 64.6884H36.5625V47.8134H47.8125V64.6884Z" fill="#4E4E4E"/>
</svg>
