<svg width="68" height="71" viewBox="0 0 68 71" fill="none" xmlns="http://www.w3.org/2000/svg">
<path d="M61.875 0H5.625C4.13316 0 2.70242 0.592632 1.64752 1.64752C0.592632 2.70242 0 4.13316 0 5.625V25.3125C0 43.8469 8.97188 55.0793 16.4988 61.2387C24.6059 67.8691 32.6707 70.1191 33.0223 70.2141C33.5057 70.3456 34.0154 70.3456 34.4988 70.2141C34.8504 70.1191 42.9047 67.8691 51.0223 61.2387C58.5281 55.0793 67.5 43.8469 67.5 25.3125V5.625C67.5 4.13316 66.9074 2.70242 65.8525 1.64752C64.7976 0.592632 63.3668 0 61.875 0ZM61.875 25.3125C61.875 38.3449 57.0727 48.9234 47.6016 56.7492C43.4787 60.1443 38.7898 62.7863 33.75 64.5539C28.7761 62.8171 24.1451 60.222 20.0672 56.8863C10.4836 49.0465 5.625 38.4258 5.625 25.3125V5.625H61.875V25.3125ZM17.6977 35.7398C17.1699 35.2121 16.8734 34.4963 16.8734 33.75C16.8734 33.0037 17.1699 32.2879 17.6977 31.7602C18.2254 31.2324 18.9412 30.9359 19.6875 30.9359C20.4338 30.9359 21.1496 31.2324 21.6773 31.7602L28.125 38.2113L45.8227 20.5102C46.084 20.2488 46.3942 20.0416 46.7356 19.9001C47.077 19.7587 47.443 19.6859 47.8125 19.6859C48.182 19.6859 48.548 19.7587 48.8894 19.9001C49.2308 20.0416 49.541 20.2488 49.8023 20.5102C50.0637 20.7715 50.2709 21.0817 50.4124 21.4231C50.5538 21.7645 50.6266 22.1305 50.6266 22.5C50.6266 22.8695 50.5538 23.2355 50.4124 23.5769C50.2709 23.9183 50.0637 24.2285 49.8023 24.4898L30.1148 44.1773C29.8536 44.4388 29.5435 44.6463 29.202 44.7878C28.8606 44.9294 28.4946 45.0022 28.125 45.0022C27.7554 45.0022 27.3894 44.9294 27.048 44.7878C26.7065 44.6463 26.3964 44.4388 26.1352 44.1773L17.6977 35.7398Z" fill="#4E4E4E"/>
</svg>
